HIERARCHY
ROOT joint_Root
{
	OFFSET 0.0 0.0 0.0
	CHANNELS 6 Xposition Yposition Zposition Zrotation Xrotation Yrotation 
	JOINT Hips
	{
		OFFSET -17.1583 93.1646 452.98
		CHANNELS 6 Xposition Yposition Zposition Zrotation Xrotation Yrotation 
		JOINT Spine
		{
			OFFSET 15.7357 0.0 0.0
			CHANNELS 6 Xposition Yposition Zposition Zrotation Xrotation Yrotation 
			JOINT Chest
			{
				OFFSET 8.98455 -0.406207 0.0
				CHANNELS 6 Xposition Yposition Zposition Zrotation Xrotation Yrotation 
				JOINT Neck
				{
					OFFSET 16.3773 0.0 0.0
					CHANNELS 6 Xposition Yposition Zposition Zrotation Xrotation Yrotation 
					JOINT Head
					{
						OFFSET 6.45672 0.0 0.0
						CHANNELS 6 Xposition Yposition Zposition Zrotation Xrotation Yrotation 
						End Site
						{
							OFFSET 0.0 0.0 0.0
						}
					}
				}
				JOINT Shoulder_L
				{
					OFFSET 12.9942 -0.242716 4.98039
					CHANNELS 6 Xposition Yposition Zposition Zrotation Xrotation Yrotation 
					JOINT UpperArm_L
					{
						OFFSET 5.34809 0.0 0.0
						CHANNELS 6 Xposition Yposition Zposition Zrotation Xrotation Yrotation 
						JOINT LowerArm_L
						{
							OFFSET 24.3286 1.87007e-05 0.0
							CHANNELS 6 Xposition Yposition Zposition Zrotation Xrotation Yrotation 
							JOINT Hand_L
							{
								OFFSET 22.2916 0.0 0.0
								CHANNELS 6 Xposition Yposition Zposition Zrotation Xrotation Yrotation 
								End Site
								{
									OFFSET 0.0 0.0 0.0
								}
							}
						}
					}
				}
				JOINT Shoulder_R
				{
					OFFSET 12.9945 -0.242716 -4.98039
					CHANNELS 6 Xposition Yposition Zposition Zrotation Xrotation Yrotation 
					JOINT UpperArm_R
					{
						OFFSET -5.34813 0.0 0.0
						CHANNELS 6 Xposition Yposition Zposition Zrotation Xrotation Yrotation 
						JOINT LowerArm_R
						{
							OFFSET -24.3289 0.000322201 0.0
							CHANNELS 6 Xposition Yposition Zposition Zrotation Xrotation Yrotation 
							JOINT Hand_R
							{
								OFFSET -22.2915 -0.000108084 0.0
								CHANNELS 6 Xposition Yposition Zposition Zrotation Xrotation Yrotation 
								End Site
								{
									OFFSET 0.0 0.0 0.0
								}
							}
						}
					}
				}
			}
		}
		JOINT UpperLeg_L
		{
			OFFSET -2.19248 -6.46944 0.0
			CHANNELS 6 Xposition Yposition Zposition Zrotation Xrotation Yrotation 
			JOINT LowerLeg_L
			{
				OFFSET 39.0811 0.0 -1.23785e-05
				CHANNELS 6 Xposition Yposition Zposition Zrotation Xrotation Yrotation 
				JOINT Foot_L
				{
					OFFSET 40.9854 0.0 -1.26872e-05
					CHANNELS 6 Xposition Yposition Zposition Zrotation Xrotation Yrotation 
					JOINT Toes_L
					{
						OFFSET 11.7543 0.0 0.0
						CHANNELS 6 Xposition Yposition Zposition Zrotation Xrotation Yrotation 
						End Site
						{
							OFFSET 0.0 0.0 0.0
						}
					}
				}
			}
		}
		JOINT UpperLeg_R
		{
			OFFSET -2.19251 6.46944 0.0
			CHANNELS 6 Xposition Yposition Zposition Zrotation Xrotation Yrotation 
			JOINT LowerLeg_R
			{
				OFFSET -39.0811 -0.00228153 -0.0401928
				CHANNELS 6 Xposition Yposition Zposition Zrotation Xrotation Yrotation 
				JOINT Foot_R
				{
					OFFSET -40.9854 0.0 0.0
					CHANNELS 6 Xposition Yposition Zposition Zrotation Xrotation Yrotation 
					JOINT Toes_R
					{
						OFFSET -11.7543 0.0 0.0
						CHANNELS 6 Xposition Yposition Zposition Zrotation Xrotation Yrotation 
						End Site
						{
							OFFSET 0.0 0.0 0.0
						}
					}
				}
			}
		}
	}
}
MOTION
Frames:	8
Frame Time:	0.0333333
0.000000 0.000000 0.000000 0.000000 0.000000 -0.000000 88.206600 91.001900 179.663000 -61.181000 73.775700 162.154000 15.735700 0.000005 -0.000001 90.268900 82.232600 -87.659000 8.984550 -0.406207 -0.000000 7.772300 0.072873 5.209510 16.377300 -0.000001 -0.000001 21.349400 18.057000 -6.887400 6.456720 -0.000001 -0.000000 -7.201390 26.639700 6.893640 12.994200 -0.242716 4.980390 -92.324200 5.523020 -67.134900 5.348090 -0.000007 -0.000001 -76.063100 -10.805600 -3.213150 24.328600 0.000019 0.000005 10.205200 20.319600 -27.402600 22.291600 -0.000001 0.000005 54.339700 4.498330 16.627700 12.994500 -0.242716 -4.980390 88.040600 4.758370 -67.588200 -5.348130 -0.000001 -0.000004 -69.744700 17.437400 -9.430710 -24.328900 0.000322 -0.000009 -1.517530 -3.020140 -26.679000 -22.291500 -0.000108 -0.000004 45.559100 5.577930 -10.101900 -2.192480 -6.469440 -0.000000 -177.079000 2.882040 -16.261100 39.081100 -0.000007 -0.000012 -0.109981 0.048966 66.002500 40.985400 -0.000006 -0.000013 0.178952 -4.580610 -56.601500 11.754300 -0.000000 0.000003 0.002487 0.082994 -13.210900 -2.192510 6.469440 -0.000001 -175.734000 12.023700 178.649000 -39.081100 -0.002282 -0.040193 0.087135 -0.159476 27.728600 -40.985400 0.000008 0.000006 -2.411300 2.543630 -71.357600 -11.754300 -0.000006 -0.000006 -0.013790 0.297723 -4.469060
0.000000 0.000000 0.000000 0.000000 0.000000 -0.000000 90.797800 91.368600 178.657000 -66.739700 72.635300 167.035000 15.735700 0.000005 -0.000001 93.928800 82.397700 -91.749600 8.984550 -0.406207 -0.000000 7.387830 1.030740 4.287270 16.377300 -0.000001 -0.000001 21.684300 17.809900 -6.305450 6.456720 -0.000001 -0.000000 -7.160670 25.699300 7.075140 12.994200 -0.242716 4.980390 -92.383000 5.546740 -66.706200 5.348090 -0.000007 -0.000001 -73.755500 -13.656600 -0.629706 24.328600 0.000019 0.000005 10.042300 19.852000 -27.540800 22.291600 -0.000001 0.000005 53.814700 4.490320 16.759900 12.994500 -0.242716 -4.980390 88.095700 4.631780 -67.620900 -5.348130 -0.000001 -0.000004 -69.356000 17.590400 -11.101200 -24.328900 0.000322 -0.000009 -1.209130 -1.965660 -31.587100 -22.291500 -0.000108 -0.000004 45.037100 5.574850 -9.939570 -2.192480 -6.469440 -0.000000 -178.431000 1.781360 -18.492700 39.081100 -0.000007 -0.000012 -0.076781 0.046628 58.732800 40.985400 -0.000006 -0.000013 -0.768385 -5.444310 -60.552200 11.754300 -0.000000 0.000003 0.002345 0.103842 -12.365700 -2.192510 6.469440 -0.000001 -177.745000 13.805200 -178.328000 -39.081100 -0.002282 -0.040193 0.048175 -0.096122 25.019900 -40.985400 0.000008 0.000006 -3.818750 3.276020 -71.498700 -11.754300 -0.000006 -0.000006 -0.013365 0.294928 -4.583630
0.000000 0.000000 0.000000 0.000000 0.000000 -0.000000 93.304400 91.520300 177.656000 -70.724900 71.263600 170.060000 15.735700 0.000005 -0.000001 97.263400 82.614200 -95.400100 8.984550 -0.406207 -0.000000 6.862370 1.846720 3.612120 16.377300 -0.000001 -0.000001 21.861700 17.640200 -5.898490 6.456720 -0.000001 -0.000000 -7.341860 24.819400 7.172740 12.994200 -0.242716 4.980390 -92.484200 5.629950 -66.143400 5.348090 -0.000007 -0.000001 -71.043900 -16.548100 1.499440 24.328600 0.000019 0.000005 10.443900 20.514100 -27.743800 22.291600 -0.000001 0.000005 53.563300 4.515830 16.337600 12.994500 -0.242716 -4.980390 88.093300 4.663550 -67.733400 -5.348130 -0.000001 -0.000004 -68.660200 17.338000 -12.422700 -24.328900 0.000322 -0.000009 -0.658107 -0.889081 -36.473400 -22.291500 -0.000108 -0.000004 45.401500 5.570510 -9.714690 -2.192480 -6.469440 -0.000000 -179.585000 -0.809244 -20.009900 39.081100 -0.000007 -0.000012 -0.052915 0.045659 49.212500 40.985400 -0.000006 -0.000013 -0.615110 -6.755310 -62.034600 11.754300 -0.000000 0.000003 0.002370 0.102013 -12.439900 -2.192510 6.469440 -0.000001 -179.665000 16.713100 -175.671000 -39.081100 -0.002282 -0.040193 0.019764 -0.039644 22.532700 -40.985400 0.000008 0.000006 -4.759900 5.015900 -71.547800 -11.754300 -0.000006 -0.000006 -0.012768 0.290938 -4.747210
0.000000 0.000000 0.000000 0.000000 0.000000 -0.000000 95.805100 91.426300 176.708000 -73.292900 69.375600 171.482000 15.735700 0.000005 -0.000001 99.638300 82.909100 -97.968100 8.984550 -0.406207 -0.000000 6.187640 2.344790 3.210220 16.377300 -0.000001 -0.000001 21.550800 17.462600 -5.391930 6.456720 -0.000001 -0.000000 -7.455830 24.214500 7.142350 12.994200 -0.242716 4.980390 -92.630800 5.838240 -65.691000 5.348090 -0.000007 -0.000001 -67.739700 -18.297200 3.902240 24.328600 0.000019 0.000005 10.584300 19.827600 -28.850400 22.291600 -0.000001 0.000005 53.189800 4.509590 16.441200 12.994500 -0.242716 -4.980390 88.118800 4.613290 -67.786800 -5.348130 -0.000001 -0.000004 -68.179200 16.946100 -13.378100 -24.328900 0.000322 -0.000009 -0.145459 -0.167516 -40.775000 -22.291500 -0.000108 -0.000004 46.069700 5.562200 -9.296470 -2.192480 -6.469440 -0.000000 179.211000 -4.074730 -21.022200 39.081100 -0.000007 -0.000012 -0.033606 0.042493 38.340400 40.985400 -0.000006 -0.000013 -0.639353 -6.828540 -61.469600 11.754300 -0.000000 0.000003 0.002385 0.100844 -12.487300 -2.192510 6.469440 -0.000001 179.098000 19.263400 -173.526000 -39.081100 -0.002282 -0.040193 -0.001137 0.011858 20.602000 -40.985400 0.000008 0.000006 -6.064850 5.863860 -71.905200 -11.754300 -0.000006 -0.000006 -0.013027 0.292680 -4.675810
0.000000 0.000000 0.000000 0.000000 0.000000 -0.000000 98.414700 91.059000 175.741000 -74.618800 66.998400 171.750000 15.735700 0.000005 -0.000001 101.158000 83.231700 -99.546900 8.984550 -0.406207 -0.000000 5.484750 2.581490 3.096140 16.377300 -0.000001 -0.000001 20.843500 17.249400 -4.851230 6.456720 -0.000001 -0.000000 -7.624230 23.517300 7.211320 12.994200 -0.242716 4.980390 -92.730200 6.009090 -65.509800 5.348090 -0.000007 -0.000001 -64.595100 -20.347000 5.961800 24.328600 0.000019 0.000005 10.939400 19.827000 -29.676600 22.291600 -0.000001 0.000005 53.248200 4.517220 16.314400 12.994500 -0.242716 -4.980390 88.182700 4.457690 -67.793700 -5.348130 -0.000001 -0.000004 -68.070200 16.241500 -13.922500 -24.328900 0.000322 -0.000009 0.293415 0.303168 -44.170800 -22.291500 -0.000108 -0.000004 46.591300 5.556910 -9.036960 -2.192480 -6.469440 -0.000000 177.825000 -7.834930 -21.084900 39.081100 -0.000007 -0.000012 -0.011819 0.023457 26.741400 40.985400 -0.000006 -0.000013 -1.699750 -3.869550 -61.110800 11.754300 -0.000000 0.000003 0.002440 0.095312 -12.711600 -2.192510 6.469440 -0.000001 178.303000 21.641400 -171.444000 -39.081100 -0.002282 -0.040193 -0.042104 0.130512 19.191400 -40.985400 0.000008 0.000006 -7.954960 6.426330 -72.357700 -11.754300 -0.000006 -0.000006 -0.011651 0.283255 -5.061930
0.000000 0.000000 0.000000 0.000000 0.000000 -0.000000 101.118000 90.501100 174.615000 -75.382300 64.954400 171.261000 15.735700 0.000005 -0.000001 103.832000 83.608400 -102.275000 8.984550 -0.406207 -0.000000 4.612670 3.007870 2.990200 16.377300 -0.000001 -0.000001 19.569300 16.969800 -4.162250 6.456720 -0.000001 -0.000000 -7.554470 22.763900 7.272810 12.994200 -0.242716 4.980390 -92.907600 6.339730 -65.299200 5.348090 -0.000007 -0.000001 -61.515900 -21.453100 7.824720 24.328600 0.000019 0.000005 11.102500 19.333600 -30.656900 22.291600 -0.000001 0.000005 53.337400 4.514020 16.367800 12.994500 -0.242716 -4.980390 88.187200 4.464080 -67.871900 -5.348130 -0.000001 -0.000004 -67.826400 15.717900 -14.063700 -24.328900 0.000322 -0.000009 0.911377 0.862493 -46.616000 -22.291500 -0.000108 -0.000004 47.645500 5.555340 -8.960640 -2.192480 -6.469440 -0.000000 175.863000 -11.704600 -20.653900 39.081100 -0.000007 -0.000012 0.001806 -0.006758 14.968100 40.985400 -0.000006 -0.000013 -1.864230 0.407514 -60.859700 11.754300 -0.000000 0.000003 0.002375 0.101627 -12.455500 -2.192510 6.469440 -0.000001 178.163000 22.304700 -170.465000 -39.081100 -0.002282 -0.040193 -0.071331 0.213637 19.261600 -40.985400 0.000008 0.000006 -9.592400 5.769130 -73.433700 -11.754300 -0.000006 -0.000006 0.153924 0.554056 -6.036140
0.000000 0.000000 0.000000 0.000000 0.000000 -0.000000 103.938000 89.896900 173.298000 -75.849800 63.179900 170.386000 15.735700 0.000005 -0.000001 107.237000 83.998600 -105.728000 8.984550 -0.406207 -0.000000 3.659070 3.498050 2.904800 16.377300 -0.000001 -0.000001 18.077200 16.640400 -3.506800 6.456720 -0.000001 -0.000000 -7.596360 22.009600 7.192590 12.994200 -0.242716 4.980390 -93.139900 6.763530 -65.024400 5.348090 -0.000007 -0.000001 -58.950600 -22.652000 9.240360 24.328600 0.000019 0.000005 11.207700 19.120700 -31.170100 22.291600 -0.000001 0.000005 52.968100 4.545210 15.846200 12.994500 -0.242716 -4.980390 88.139100 4.630820 -68.078400 -5.348130 -0.000001 -0.000004 -67.534200 15.228400 -13.889600 -24.328900 0.000322 -0.000009 1.852750 1.678920 -47.849400 -22.291500 -0.000108 -0.000004 48.227500 5.551770 -8.790340 -2.192480 -6.469440 -0.000000 174.362000 -13.290200 -21.311100 39.081100 -0.000007 -0.000012 0.003156 -0.026195 6.872070 40.985400 -0.000006 -0.000013 -1.387650 1.416290 -62.089100 11.754300 -0.000000 0.000003 0.002305 0.106539 -12.256400 -2.192510 6.469440 -0.000001 178.514000 21.900700 -170.645000 -39.081100 -0.002282 -0.040193 -0.086952 0.233810 21.111100 -40.985400 0.000008 0.000006 -10.615500 4.348720 -74.745300 -11.754300 -0.000006 -0.000006 -0.005380 0.232762 -7.124720
0.000000 0.000000 0.000000 0.000000 0.000000 -0.000000 107.000000 89.343900 171.665000 -76.126600 62.256800 169.292000 15.735700 0.000005 -0.000001 112.420000 84.337700 -111.025000 8.984550 -0.406207 -0.000000 2.658930 4.253140 2.689480 16.377300 -0.000001 -0.000001 16.292500 16.450100 -2.753080 6.456720 -0.000001 -0.000000 -7.487380 21.221800 6.992000 12.994200 -0.242716 4.980390 -93.304800 7.038930 -64.770000 5.348090 -0.000007 -0.000001 -57.220100 -23.595700 10.413400 24.328600 0.000019 0.000005 11.047200 18.946100 -31.019100 22.291600 -0.000001 0.000005 53.117900 4.538150 15.964600 12.994500 -0.242716 -4.980390 88.058000 4.924100 -68.445100 -5.348130 -0.000001 -0.000004 -67.289400 15.081300 -13.456300 -24.328900 0.000322 -0.000009 2.423850 2.214920 -47.617300 -22.291500 -0.000108 -0.000004 48.285900 5.550240 -8.718060 -2.192480 -6.469440 -0.000000 172.982000 -15.202900 -23.502600 39.081100 -0.000007 -0.000012 0.002801 -0.039015 4.107390 40.985400 -0.000006 -0.000013 -1.474840 1.509130 -64.508200 11.754300 -0.000000 0.000003 0.002291 0.107339 -12.224000 -2.192510 6.469440 -0.000001 178.178000 21.869500 -170.876000 -39.081100 -0.002282 -0.040193 -0.106960 0.254695 23.411100 -40.985400 0.000008 0.000006 -11.626500 4.271880 -74.894200 -11.754300 -0.000006 -0.000006 -0.000679 0.178401 -9.336840
